<svg id="Layer_1" data-name="Layer 1" xmlns="http://www.w3.org/2000/svg" viewBox="0 0 360.9 135.9">
  <defs>
    <style>
      .cls-1 {
        fill: #d6d6d6;
      }

      .cls-2, .cls-4 {
        fill: none;
        stroke-miterlimit: 10;
        stroke-width: 0.9px;
      }

      .cls-2 {
        stroke: #000;
      }

      .cls-2, .cls-7 {
        opacity: 0;
      }

      .cls-3 {
        fill: #cdbbdc;
      }

      .cls-4 {
        stroke: #3d4752;
      }

      .cls-5 {
        fill: #3d4752;
      }

      .cls-6, .cls-7 {
        fill: #fff;
      }
    </style>
  </defs>
  <title>sample-decision-tree</title>
  <g>
    <path class="cls-1" d="M144.24,43.46a9,9,0,1,1-9-9A9,9,0,0,1,144.24,43.46Z" transform="translate(0.21 -0.01)"/>
    <path class="cls-2" d="M144.24,43.46a9,9,0,1,1-9-9A9,9,0,0,1,144.24,43.46Z" transform="translate(0.21 -0.01)"/>
    <rect class="cls-3" x="0.45" y="70.45" width="18" height="18"/>
    <rect class="cls-2" x="0.45" y="70.45" width="18" height="18"/>
    <line class="cls-4" x1="18.45" y1="79.45" x2="126.45" y2="43.45"/>
    <polygon class="cls-5" points="18.59 79.86 18.45 79.94 18.45 79.45 18.59 79.86"/>
    <polygon class="cls-5" points="126.45 43.45 126.31 43.05 126.5 42.95 126.45 43.45"/>
    <rect class="cls-6" x="53.68" y="58.84" width="19.89" height="11.07"/>
    <path class="cls-5" d="M54.42,61.22c.43,1.51.83,3.07,1.28,4.57L57,61.22h.88c.45,1.51.87,3.07,1.35,4.57l1.26-4.57h.85L59.71,67h-.83c-.47-1.53-.92-3.09-1.41-4.61L56.07,67h-.83l-1.68-5.73h.87" transform="translate(0.21 -0.01)"/>
    <path class="cls-5" d="M63.65,66.42A1.39,1.39,0,1,0,62.37,65a1.24,1.24,0,0,0,1.28,1.39m0-3.41a2,2,0,1,1-2.07,2A1.9,1.9,0,0,1,63.65,63Z" transform="translate(0.21 -0.01)"/>
    <path class="cls-5" d="M66.78,67c0-1.28,0-2.61,0-3.84h.72c0,.16,0,.48,0,.65h0A1.3,1.3,0,0,1,69,63l0,.7a1.1,1.1,0,0,0-1.43,1.19v2h-.76" transform="translate(0.21 -0.01)"/>
    <polyline class="cls-5" points="70.7 64.77 70.73 64.77 72.34 63.1 73.36 63.1 71.56 64.84 73.51 66.94 72.46 66.94 70.73 64.95 70.7 64.95 70.7 65.94 70.7 66.94 69.94 66.94 69.94 63.88 69.94 60.82 70.7 60.82 70.7 62.79 70.7 64.77"/>
    <line class="cls-4" x1="18.45" y1="79.45" x2="126.45" y2="106.45"/>
    <polygon class="cls-5" points="18.54 79 18.45 79.45 18.45 79 18.54 79"/>
    <polygon class="cls-5" points="126.45 106.9 126.36 106.9 126.45 106.45 126.45 106.9"/>
    <rect class="cls-6" x="53.37" y="87.42" width="38.11" height="11.03"/>
    <path class="cls-5" d="M58.78,95.17a4.37,4.37,0,0,1-3.39.28,3,3,0,0,1,1.22-5.8,2.91,2.91,0,0,1,2.12.75l-.56.58a2,2,0,0,0-1.56-.62,2.3,2.3,0,0,0,0,4.6A2.66,2.66,0,0,0,58,94.67v-1.6H56.71v-.68h2.07v2.78" transform="translate(0.21 -0.01)"/>
    <path class="cls-5" d="M61.93,95a1.39,1.39,0,1,0-1.28-1.39A1.24,1.24,0,0,0,61.93,95m0-3.41a2,2,0,1,1-2.07,2A1.9,1.9,0,0,1,61.93,91.58Z" transform="translate(0.21 -0.01)"/>
    <path class="cls-5" d="M68.64,90c-.83,0-.66.93-.68,1.73h.89v.62H68v3.22H67.2V92.31h-.76v-.62h.76v-.8c0-1.16.74-1.77,1.91-1.52L69,90a1.35,1.35,0,0,0-.38-.06" transform="translate(0.21 -0.01)"/>
    <path class="cls-5" d="M69.94,89.81a.5.5,0,0,1,.51.49.51.51,0,1,1-.51-.49m.38,5.72h-.76V91.69h.76v3.84Z" transform="translate(0.21 -0.01)"/>
    <path class="cls-5" d="M71.52,93.21c-.5-1.26.95-2,2.14-1.47a1.3,1.3,0,0,1,.6.47l-.53.45a1,1,0,0,0-.89-.48c-.38,0-.71.12-.71.5,0,.59.92.51,1.39.73a1.08,1.08,0,0,1,.78,1c.06,1.56-2.45,1.51-3.08.55l.54-.46a1.24,1.24,0,0,0,1,.53c.42,0,.76-.14.76-.56,0-.73-1.27-.51-1.76-.95a.84.84,0,0,1-.26-.3" transform="translate(0.21 -0.01)"/>
    <path class="cls-5" d="M77.06,92.23c-.65,0-1,.57-1,1.26v2h-.76V89.41H76c0,.95,0,1.94,0,2.87a1.35,1.35,0,0,1,1.21-.69,1.37,1.37,0,0,1,1.43,1.56v2.38h-.76V93.41c0-.67-.19-1.17-.87-1.17" transform="translate(0.21 -0.01)"/>
    <path class="cls-5" d="M80.37,89.81a.5.5,0,0,1,.51.49.51.51,0,1,1-.51-.49m.38,5.72H80V91.69h.76v3.84Z" transform="translate(0.21 -0.01)"/>
    <path class="cls-5" d="M82.08,95.53c0-1.28,0-2.61,0-3.84h.72c0,.16,0,.45,0,.63h0a1.34,1.34,0,0,1,1.25-.74c1,0,1.43.61,1.43,1.56v2.38h-.76V93.4c0-.68-.19-1.17-.87-1.17s-1,.57-1,1.26v2h-.76" transform="translate(0.21 -0.01)"/>
    <path class="cls-5" d="M88.6,92.22a1.36,1.36,0,0,0,0,2.71,1.35,1.35,0,0,0,0-2.71m2,3.12a1.92,1.92,0,0,1-2.12,2.14,2.81,2.81,0,0,1-1.88-.7l.49-.59a2,2,0,0,0,1.4.62c1.1,0,1.47-.77,1.34-1.91a1.56,1.56,0,0,1-1.35.66,2,2,0,0,1,0-4,1.63,1.63,0,0,1,1.4.72v-.62h.74v3.64Z" transform="translate(0.21 -0.01)"/>
    <line class="cls-4" x1="144.45" y1="43.45" x2="252.45" y2="52.45"/>
    <polygon class="cls-5" points="144.5 43 144.41 43.9 144.45 43.45 144.45 43 144.5 43"/>
    <rect class="cls-6" x="208.39" y="43.68" width="16.7" height="11.07"/>
    <path class="cls-5" d="M210.57,45.91A1.63,1.63,0,0,1,212.31,48a2.64,2.64,0,0,1-.85,1.22l-1.86,1.81h2.81v.7h-3.74V51L211,48.77a1.75,1.75,0,0,0,.63-1.22.94.94,0,0,0-1-1,1.08,1.08,0,0,0-1.08,1l-.77-.13a1.76,1.76,0,0,1,1.85-1.52" transform="translate(0.21 -0.01)"/>
    <path class="cls-5" d="M215.07,48.78a2.89,2.89,0,0,0-1.27.32l.08-3H217v.7h-2.37l0,1.51c1.4-.36,2.69.3,2.66,1.7a2,2,0,0,1-3.83.83l.71-.28a1.18,1.18,0,0,0,1.12.77,1.13,1.13,0,0,0,1.2-1.23c0-.83-.53-1.24-1.34-1.26" transform="translate(0.21 -0.01)"/>
    <path class="cls-5" d="M219.87,52l-.55-.27,3.52-6,.54.27m-3.79,2.09a.76.76,0,1,0-.76-.76A.71.71,0,0,0,219.59,48.15Zm0,.67A1.43,1.43,0,1,1,221,47.39,1.35,1.35,0,0,1,219.59,48.82Zm3.52,2.39a.76.76,0,1,0-.76-.76A.71.71,0,0,0,223.1,51.21Zm0,.67a1.43,1.43,0,1,1,1.43-1.43A1.35,1.35,0,0,1,223.1,51.89Z" transform="translate(0.21 -0.01)"/>
    <line class="cls-4" x1="144.45" y1="43.45" x2="252.45" y2="16.45"/>
    <polygon class="cls-5" points="144.54 43.9 144.41 43.95 144.45 43.45 144.54 43.9"/>
    <rect class="cls-6" x="208.17" y="19.87" width="16.7" height="11.07"/>
    <polyline class="cls-5" points="212.34 22.95 210.04 27.97 209.14 27.97 211.53 22.93 208.69 22.93 208.69 22.58 208.69 22.23 212.34 22.23 212.34 22.59 212.34 22.95"/>
    <path class="cls-5" d="M214.84,25a2.89,2.89,0,0,0-1.27.32l.08-3h3.09v.7h-2.37l0,1.51c1.4-.36,2.69.3,2.66,1.7a2,2,0,0,1-3.83.83l.71-.28a1.18,1.18,0,0,0,1.12.77,1.13,1.13,0,0,0,1.2-1.23c0-.83-.53-1.24-1.34-1.26" transform="translate(0.21 -0.01)"/>
    <path class="cls-5" d="M219.65,28.24,219.1,28l3.52-6,.54.27m-3.79,2.09a.76.76,0,1,0-.76-.76A.71.71,0,0,0,219.36,24.35Zm0,.67a1.43,1.43,0,1,1,1.43-1.43A1.35,1.35,0,0,1,219.36,25Zm3.52,2.39a.76.76,0,1,0-.76-.76A.71.71,0,0,0,222.88,27.41Zm0,.67a1.43,1.43,0,1,1,1.43-1.43A1.35,1.35,0,0,1,222.88,28.08Z" transform="translate(0.21 -0.01)"/>
    <path class="cls-1" d="M144.24,106.46a9,9,0,1,1-9-9A9,9,0,0,1,144.24,106.46Z" transform="translate(0.21 -0.01)"/>
    <path class="cls-2" d="M144.24,106.46a9,9,0,1,1-9-9A9,9,0,0,1,144.24,106.46Z" transform="translate(0.21 -0.01)"/>
    <line class="cls-4" x1="144.45" y1="106.45" x2="252.45" y2="88.45"/>
    <polygon class="cls-5" points="144.54 106.9 144.41 106.9 144.45 106.45 144.54 106.9"/>
    <rect class="cls-6" x="206.01" y="89.26" width="16.7" height="11.07"/>
    <path class="cls-5" d="M208.21,94.43a1.11,1.11,0,0,0-1.2,1.21,1.19,1.19,0,1,0,2.37,0,1.09,1.09,0,0,0-1.17-1.2m0,3.09a1.8,1.8,0,0,1-2-1.89,2.73,2.73,0,0,1,.56-1.63l1.5-2.37h.93l-1.54,2.31v0a1.45,1.45,0,0,1,.71-.15,1.7,1.7,0,0,1,1.79,1.8A1.8,1.8,0,0,1,208.2,97.52Z" transform="translate(0.21 -0.01)"/>
    <path class="cls-5" d="M213.51,95.41c0-1,0-2,0-2.88l-1.81,2.88h1.83m.76,0h.83v.67h-.83v1.29h-.76V96.09h-2.64v-.71l2.44-3.73h1v3.77Z" transform="translate(0.21 -0.01)"/>
    <path class="cls-5" d="M217.49,97.63l-.55-.27,3.52-6,.54.27m-3.79,2.09a.76.76,0,1,0-.76-.76A.71.71,0,0,0,217.2,93.74Zm0,.67A1.43,1.43,0,1,1,218.64,93,1.35,1.35,0,0,1,217.2,94.41Zm3.52,2.39A.76.76,0,1,0,220,96,.71.71,0,0,0,220.72,96.8Zm0,.67A1.43,1.43,0,1,1,222.15,96,1.35,1.35,0,0,1,220.72,97.47Z" transform="translate(0.21 -0.01)"/>
    <line class="cls-4" x1="144.45" y1="106.45" x2="252.45" y2="124.45"/>
    <polygon class="cls-5" points="144.54 106 144.45 106.45 144.45 106 144.54 106"/>
    <rect class="cls-6" x="206.77" y="112.66" width="16.69" height="11.07"/>
    <path class="cls-5" d="M210,119.16c0-.87-.77-1.09-1.68-1.06v-.65c.85,0,1.53-.15,1.53-1a.92.92,0,0,0-1-.95,1,1,0,0,0-1,.7l-.71-.25a1.81,1.81,0,0,1,1.75-1.11c1,0,1.77.51,1.77,1.56a1.34,1.34,0,0,1-1,1.32,1.36,1.36,0,0,1,1.17,1.4,1.7,1.7,0,0,1-1.92,1.75,1.89,1.89,0,0,1-2-1.26l.73-.24a1.21,1.21,0,0,0,1.21.84,1,1,0,0,0,1.15-1.09" transform="translate(0.21 -0.01)"/>
    <path class="cls-5" d="M213.8,117.83a1.11,1.11,0,0,0-1.2,1.21,1.19,1.19,0,1,0,2.37,0,1.09,1.09,0,0,0-1.17-1.2m0,3.09a1.8,1.8,0,0,1-2-1.89,2.73,2.73,0,0,1,.56-1.63l1.5-2.37h.93l-1.54,2.31v0a1.45,1.45,0,0,1,.71-.15,1.7,1.7,0,0,1,1.79,1.8A1.8,1.8,0,0,1,213.79,120.92Z" transform="translate(0.21 -0.01)"/>
    <path class="cls-5" d="M218.25,121l-.55-.27,3.52-6,.54.27M218,117.14a.76.76,0,1,0-.76-.76A.71.71,0,0,0,218,117.14Zm0,.67a1.43,1.43,0,1,1,1.43-1.43A1.35,1.35,0,0,1,218,117.81Zm3.52,2.39a.76.76,0,1,0-.76-.76A.71.71,0,0,0,221.48,120.2Zm0,.67a1.43,1.43,0,1,1,1.43-1.43A1.35,1.35,0,0,1,221.48,120.87Z" transform="translate(0.21 -0.01)"/>
    <rect class="cls-7" x="252.45" y="0.45" width="108" height="27"/>
    <rect class="cls-4" x="252.45" y="0.45" width="108" height="27"/>
    <path class="cls-5" d="M256,8.79c0,.83,0,1.72,0,2.53l2.56-2.53h1.11l-2.79,2.62,3,3.11h-1.15c-.91-1-1.79-2-2.71-3v3h-.8V8.79h.8" transform="translate(0.21 -0.01)"/>
    <path class="cls-5" d="M262,10.58c1.3,0,1.9.87,1.84,2.25h-3A1.2,1.2,0,0,0,262,14a1.28,1.28,0,0,0,1.12-.58l.53.43a1.92,1.92,0,0,1-1.65.79,1.86,1.86,0,0,1-2-2,1.86,1.86,0,0,1,2-2M263,12.27a1.07,1.07,0,0,0-1.54-1,1.12,1.12,0,0,0-.75,1Z" transform="translate(0.21 -0.01)"/>
    <path class="cls-5" d="M266.61,10.58c1.3,0,1.9.87,1.84,2.25h-3A1.2,1.2,0,0,0,266.65,14a1.28,1.28,0,0,0,1.12-.58l.53.43a1.92,1.92,0,0,1-1.65.79,1.86,1.86,0,0,1-2-2,1.86,1.86,0,0,1,2-2m1.08,1.68a1.07,1.07,0,0,0-1.54-1,1.12,1.12,0,0,0-.75,1Z" transform="translate(0.21 -0.01)"/>
    <path class="cls-5" d="M271.53,14a1.24,1.24,0,0,0,1.28-1.39,1.23,1.23,0,0,0-1.28-1.39,1.26,1.26,0,0,0-1.3,1.39,1.25,1.25,0,0,0,1.3,1.39m.13.64a1.59,1.59,0,0,1-1.35-.68h0v2.52h-.76V10.69h.75v.6h0a1.54,1.54,0,0,1,1.39-.7,1.85,1.85,0,0,1,1.92,2A1.84,1.84,0,0,1,271.66,14.63Z" transform="translate(0.21 -0.01)"/>
    <path class="cls-5" d="M277.05,8.81a.5.5,0,0,1,.51.49.5.5,0,0,1-.51.49.49.49,0,1,1,0-1m.38,6.21c.06,1.06-.58,1.64-1.68,1.4l.08-.65c.59.18.84-.19.84-.78V10.69h.76V15Z" transform="translate(0.21 -0.01)"/>
    <path class="cls-5" d="M280.57,14a1.24,1.24,0,0,0,1.28-1.39,1.28,1.28,0,1,0-2.56,0A1.24,1.24,0,0,0,280.57,14m0-3.41a1.9,1.9,0,0,1,2.07,2,2.07,2.07,0,0,1-4.14,0A1.89,1.89,0,0,1,280.57,10.58Z" transform="translate(0.21 -0.01)"/>
    <path class="cls-5" d="M285.73,14A1.24,1.24,0,0,0,287,12.6a1.23,1.23,0,0,0-1.28-1.39,1.26,1.26,0,0,0-1.3,1.39,1.25,1.25,0,0,0,1.3,1.39m.13.64a1.62,1.62,0,0,1-1.39-.71h0v.61h-.74V8.41h.76v2.86h0a1.6,1.6,0,0,1,1.37-.68,1.85,1.85,0,0,1,1.92,2A1.84,1.84,0,0,1,285.86,14.63Z" transform="translate(0.21 -0.01)"/>
    <rect class="cls-7" x="252.45" y="36.45" width="108" height="27"/>
    <rect class="cls-4" x="252.45" y="36.45" width="108" height="27"/>
    <polyline class="cls-5" points="256.2 49.8 258.76 49.8 258.76 50.16 258.76 50.52 255.4 50.52 255.4 47.65 255.4 44.78 256.2 44.78 256.2 47.29 256.2 49.8"/>
    <path class="cls-5" d="M261,50a1.39,1.39,0,1,0-1.28-1.39A1.24,1.24,0,0,0,261,50m0-3.41a2,2,0,1,1-2.07,2A1.9,1.9,0,0,1,261,46.58Z" transform="translate(0.21 -0.01)"/>
    <path class="cls-5" d="M263.94,48.21c-.5-1.26.95-2,2.14-1.47a1.3,1.3,0,0,1,.6.47l-.53.45a1,1,0,0,0-.89-.48c-.38,0-.71.12-.71.5,0,.59.92.51,1.39.73a1.08,1.08,0,0,1,.78,1c.06,1.56-2.45,1.51-3.08.55l.54-.46a1.24,1.24,0,0,0,1,.53c.42,0,.76-.14.76-.56,0-.73-1.27-.51-1.76-.95a.84.84,0,0,1-.26-.3" transform="translate(0.21 -0.01)"/>
    <path class="cls-5" d="M269.41,46.58c1.3,0,1.9.87,1.84,2.25h-3A1.2,1.2,0,0,0,269.45,50a1.28,1.28,0,0,0,1.12-.58l.53.43a1.92,1.92,0,0,1-1.65.79,2,2,0,0,1,0-4m1.08,1.68a1.07,1.07,0,0,0-1.54-1,1.12,1.12,0,0,0-.75,1Z" transform="translate(0.21 -0.01)"/>
    <path class="cls-5" d="M274.71,44.81a.5.5,0,0,1,.51.49.5.5,0,0,1-.51.49.49.49,0,1,1,0-1m.38,6.21c.06,1.06-.58,1.64-1.68,1.4l.08-.65c.59.18.84-.19.84-.78V46.69h.76V51Z" transform="translate(0.21 -0.01)"/>
    <path class="cls-5" d="M278.23,50A1.39,1.39,0,1,0,277,48.6,1.24,1.24,0,0,0,278.23,50m0-3.41a2,2,0,1,1-2.07,2A1.9,1.9,0,0,1,278.23,46.58Z" transform="translate(0.21 -0.01)"/>
    <path class="cls-5" d="M283.39,50a1.39,1.39,0,0,0,0-2.78,1.39,1.39,0,0,0,0,2.78m.13.64a1.62,1.62,0,0,1-1.39-.71h0v.61h-.74V44.41h.76v2.86h0a1.6,1.6,0,0,1,1.37-.68,2,2,0,0,1,0,4Z" transform="translate(0.21 -0.01)"/>
    <rect class="cls-7" x="252.45" y="72.45" width="108" height="27"/>
    <rect class="cls-4" x="252.45" y="72.45" width="108" height="27"/>
    <path class="cls-5" d="M257.92,86a1.78,1.78,0,0,0,1.54-.76l.64.44a2.57,2.57,0,0,1-2.19,1,2.87,2.87,0,0,1-2.79-1.8,3.44,3.44,0,0,1,0-2.45,3,3,0,0,1,3.42-1.73,2.23,2.23,0,0,1,1.47.83l-.63.49a1.73,1.73,0,0,0-1.43-.67,2.1,2.1,0,0,0-2.18,2.3A2.06,2.06,0,0,0,257.92,86" transform="translate(0.21 -0.01)"/>
    <path class="cls-5" d="M262,86a1.09,1.09,0,0,0,1.11-1.33c-.83,0-1.9,0-1.9.73,0,.44.35.59.79.6m-1.56-.58c0-1.24,1.4-1.26,2.67-1.3,0-.65-.35-.95-.95-.95a1.6,1.6,0,0,0-1.09.45l-.4-.49a2.26,2.26,0,0,1,1.57-.58,1.42,1.42,0,0,1,1.6,1.51,23.92,23.92,0,0,0,.06,2.44h-.69a2.56,2.56,0,0,1-.06-.55h0a1.47,1.47,0,0,1-1.29.65C261,86.63,260.45,86.26,260.45,85.44Z" transform="translate(0.21 -0.01)"/>
    <path class="cls-5" d="M266.27,86.59c-.75,0-1.13-.43-1.12-1.2V83.31h-.74v-.62h.74v-1.1h.75v1.1h1v.62h-1v2c0,.44.13.64.54.65a1.09,1.09,0,0,0,.45-.1l0,.62a1.94,1.94,0,0,1-.65.11" transform="translate(0.21 -0.01)"/>
    <path class="cls-5" d="M267.46,84.61a1.88,1.88,0,0,1,2-2,1.82,1.82,0,0,1,1.44.63l-.55.45a1.05,1.05,0,0,0-.88-.44,1.39,1.39,0,0,0,0,2.77,1.1,1.1,0,0,0,.92-.42L271,86a1.77,1.77,0,0,1-1.43.6,1.9,1.9,0,0,1-2.07-2" transform="translate(0.21 -0.01)"/>
    <path class="cls-5" d="M273.52,83.23c-.65,0-1,.57-1,1.26v2h-.76V80.41h.76c0,.95,0,1.94,0,2.87a1.35,1.35,0,0,1,1.21-.69,1.37,1.37,0,0,1,1.43,1.56v2.38h-.76V84.41c0-.67-.19-1.17-.87-1.17" transform="translate(0.21 -0.01)"/>
    <path class="cls-5" d="M280,81c-.83,0-.66.93-.68,1.73h.89v.62h-.89v3.22h-.76V83.31h-.76v-.62h.76v-.8c0-1.16.74-1.77,1.91-1.52l-.09.66A1.35,1.35,0,0,0,280,81" transform="translate(0.21 -0.01)"/>
    <path class="cls-5" d="M281.35,80.81a.5.5,0,0,1,.51.49.51.51,0,1,1-.51-.49m.38,5.72H281V82.69h.76v3.84Z" transform="translate(0.21 -0.01)"/>
    <path class="cls-5" d="M282.93,84.21c-.5-1.26.95-2,2.14-1.47a1.3,1.3,0,0,1,.6.47l-.53.45a1,1,0,0,0-.89-.48c-.38,0-.71.12-.71.5,0,.59.92.51,1.39.73a1.08,1.08,0,0,1,.78,1c.06,1.56-2.45,1.51-3.08.55l.54-.46a1.24,1.24,0,0,0,1,.53c.42,0,.76-.14.76-.56,0-.73-1.27-.51-1.76-.95a.84.84,0,0,1-.26-.3" transform="translate(0.21 -0.01)"/>
    <path class="cls-5" d="M288.47,83.23c-.65,0-1,.57-1,1.26v2h-.76V80.41h.76c0,.95,0,1.94,0,2.87a1.35,1.35,0,0,1,1.21-.69,1.37,1.37,0,0,1,1.43,1.56v2.38h-.76V84.41c0-.67-.19-1.17-.87-1.17" transform="translate(0.21 -0.01)"/>
    <rect class="cls-7" x="252.45" y="108.45" width="108" height="27"/>
    <rect class="cls-4" x="252.45" y="108.45" width="108" height="27"/>
    <polyline class="cls-5" points="256.2 122.52 255.4 122.52 255.4 119.65 255.4 116.78 258.98 116.78 258.98 117.13 258.98 117.48 256.2 117.48 256.2 118.38 256.2 119.27 258.8 119.27 258.8 119.61 258.8 119.95 256.2 119.95 256.2 121.23 256.2 122.52"/>
    <path class="cls-5" d="M261,122a1.09,1.09,0,0,0,1.11-1.33c-.83,0-1.9,0-1.9.73,0,.44.35.59.79.6m-1.56-.58c0-1.24,1.4-1.26,2.67-1.3,0-.65-.35-.95-.95-.95a1.6,1.6,0,0,0-1.09.45l-.4-.49a2.26,2.26,0,0,1,1.57-.58,1.42,1.42,0,0,1,1.6,1.51,23.92,23.92,0,0,0,.06,2.44h-.69a2.56,2.56,0,0,1-.06-.55h0a1.47,1.47,0,0,1-1.29.65C260.06,122.63,259.46,122.26,259.46,121.44Z" transform="translate(0.21 -0.01)"/>
    <path class="cls-5" d="M264.52,116.81a.5.5,0,0,1,.51.49.51.51,0,1,1-.51-.49m.38,5.72h-.76v-3.84h.76v3.84Z" transform="translate(0.21 -0.01)"/>
    <polyline class="cls-5" points="267.22 122.52 266.46 122.52 266.46 119.45 266.46 116.39 267.22 116.39 267.22 119.45 267.22 122.52"/>
    <path class="cls-5" d="M271.58,122.59c-.75,0-1.13-.43-1.12-1.2v-2.08h-.74v-.62h.74v-1.1h.75v1.1h1v.62h-1v2c0,.44.13.64.54.65a1.09,1.09,0,0,0,.45-.1l0,.62a1.94,1.94,0,0,1-.65.11" transform="translate(0.21 -0.01)"/>
    <path class="cls-5" d="M274.83,122a1.39,1.39,0,1,0-1.28-1.39,1.24,1.24,0,0,0,1.28,1.39m0-3.41a2,2,0,1,1-2.07,2A1.9,1.9,0,0,1,274.83,118.58Z" transform="translate(0.21 -0.01)"/>
    <path class="cls-5" d="M279.73,120.61a1.88,1.88,0,0,1,2-2,1.82,1.82,0,0,1,1.44.63l-.55.45a1.05,1.05,0,0,0-.88-.44,1.39,1.39,0,0,0,0,2.77,1.1,1.1,0,0,0,.92-.42l.51.46a1.77,1.77,0,0,1-1.43.6,1.9,1.9,0,0,1-2.07-2" transform="translate(0.21 -0.01)"/>
    <path class="cls-5" d="M285.27,122a1.09,1.09,0,0,0,1.11-1.33c-.83,0-1.9,0-1.9.73,0,.44.35.59.79.6m-1.56-.58c0-1.24,1.4-1.26,2.67-1.3,0-.65-.35-.95-.95-.95a1.6,1.6,0,0,0-1.09.45l-.4-.49a2.26,2.26,0,0,1,1.57-.58,1.42,1.42,0,0,1,1.6,1.51,23.92,23.92,0,0,0,.06,2.44h-.69a2.56,2.56,0,0,1-.06-.55h0a1.47,1.47,0,0,1-1.29.65C284.3,122.63,283.7,122.26,283.7,121.44Z" transform="translate(0.21 -0.01)"/>
    <path class="cls-5" d="M289.52,122.59c-.75,0-1.13-.43-1.12-1.2v-2.08h-.74v-.62h.74v-1.1h.75v1.1h1v.62h-1v2c0,.44.13.64.54.65a1.09,1.09,0,0,0,.45-.1l0,.62a1.94,1.94,0,0,1-.65.11" transform="translate(0.21 -0.01)"/>
    <path class="cls-5" d="M290.71,120.61a1.88,1.88,0,0,1,2-2,1.82,1.82,0,0,1,1.44.63l-.55.45a1.05,1.05,0,0,0-.88-.44,1.39,1.39,0,0,0,0,2.77,1.1,1.1,0,0,0,.92-.42l.51.46a1.77,1.77,0,0,1-1.43.6,1.9,1.9,0,0,1-2.07-2" transform="translate(0.21 -0.01)"/>
    <path class="cls-5" d="M296.78,119.23c-.65,0-1,.57-1,1.26v2H295v-6.12h.76c0,.95,0,1.94,0,2.87a1.35,1.35,0,0,1,1.21-.69,1.37,1.37,0,0,1,1.43,1.56v2.38h-.76v-2.12c0-.67-.19-1.17-.87-1.17" transform="translate(0.21 -0.01)"/>
    <path class="cls-5" d="M303.31,117c-.83,0-.66.93-.68,1.73h.89v.62h-.89v3.22h-.76v-3.22h-.76v-.62h.76v-.8c0-1.16.74-1.77,1.91-1.52l-.09.66a1.35,1.35,0,0,0-.38-.06" transform="translate(0.21 -0.01)"/>
    <path class="cls-5" d="M304.62,116.81a.5.5,0,0,1,.51.49.51.51,0,1,1-.51-.49m.38,5.72h-.76v-3.84H305v3.84Z" transform="translate(0.21 -0.01)"/>
    <path class="cls-5" d="M306.19,120.21c-.5-1.26.95-2,2.14-1.47a1.3,1.3,0,0,1,.6.47l-.53.45a1,1,0,0,0-.89-.48c-.38,0-.71.12-.71.5,0,.59.92.51,1.39.73a1.08,1.08,0,0,1,.78,1c.06,1.56-2.45,1.51-3.08.55l.54-.46a1.24,1.24,0,0,0,1,.53c.42,0,.76-.14.76-.56,0-.73-1.27-.51-1.76-.95a.84.84,0,0,1-.26-.3" transform="translate(0.21 -0.01)"/>
    <path class="cls-5" d="M311.74,119.23c-.65,0-1,.57-1,1.26v2h-.76v-6.12h.76c0,.95,0,1.94,0,2.87a1.35,1.35,0,0,1,1.21-.69,1.37,1.37,0,0,1,1.43,1.56v2.38h-.76v-2.12c0-.67-.19-1.17-.87-1.17" transform="translate(0.21 -0.01)"/>
    <line class="cls-4" x1="252.45" y1="124.45" x2="315.45" y2="124.45"/>
    <polygon class="cls-5" points="315.45 124.45 316.35 124.9 315.45 124.9 315.45 124 316.35 124 315.45 124.45"/>
    <line class="cls-4" x1="252.45" y1="88.45" x2="315.45" y2="88.45"/>
    <polygon class="cls-5" points="315.45 88.45 316.35 88.9 315.45 88.9 315.45 88 316.35 88 315.45 88.45"/>
    <line class="cls-4" x1="252.45" y1="52.45" x2="315.45" y2="52.45"/>
    <polygon class="cls-5" points="315.45 52.45 316.35 52.9 315.45 52.9 315.45 52 316.35 52 315.45 52.45"/>
    <line class="cls-4" x1="252.45" y1="16.45" x2="315.45" y2="16.45"/>
    <polygon class="cls-5" points="315.45 16.45 316.35 16.9 315.45 16.9 315.45 16 316.35 16 315.45 16.45"/>
    <polygon class="cls-1" points="333.45 25.45 333.45 7.45 315.45 16.45 333.45 25.45"/>
    <polygon class="cls-2" points="333.45 25.45 333.45 7.45 315.45 16.45 333.45 25.45"/>
    <polygon class="cls-1" points="333.45 133.45 333.45 115.45 315.45 124.45 333.45 133.45"/>
    <polygon class="cls-2" points="333.45 133.45 333.45 115.45 315.45 124.45 333.45 133.45"/>
    <polygon class="cls-1" points="333.45 97.45 333.45 79.45 315.45 88.45 333.45 97.45"/>
    <polygon class="cls-2" points="333.45 97.45 333.45 79.45 315.45 88.45 333.45 97.45"/>
    <polygon class="cls-1" points="333.45 61.45 333.45 43.45 315.45 52.45 333.45 61.45"/>
    <polygon class="cls-2" points="333.45 61.45 333.45 43.45 315.45 52.45 333.45 61.45"/>
  </g>
</svg>
